<svg  viewBox="0 0 29 25" xmlns="http://www.w3.org/2000/svg">
<path d="M13.7744 0.5233C14.1095 0.858471 14.2977 1.313 14.2977 1.78693C14.2977 2.26086 14.1095 2.71539 13.7744 3.05056L6.10149 10.7235H26.8093C27.2833 10.7235 27.7379 10.9118 28.0731 11.247C28.4083 11.5822 28.5966 12.0368 28.5966 12.5108C28.5966 12.9848 28.4083 13.4394 28.0731 13.7746C27.7379 14.1098 27.2833 14.2981 26.8093 14.2981H6.10149L13.7744 21.971C14.1 22.3081 14.2801 22.7596 14.2761 23.2282C14.272 23.6968 14.084 24.1451 13.7526 24.4765C13.4213 24.8079 12.973 24.9959 12.5044 24.9999C12.0357 25.004 11.5843 24.8239 11.2472 24.4983L0.5233 13.7744C0.188232 13.4392 0 12.9847 0 12.5108C0 12.0369 0.188232 11.5823 0.5233 11.2472L11.2472 0.5233C11.5823 0.188232 12.0369 0 12.5108 0C12.9847 0 13.4392 0.188232 13.7744 0.5233Z" fill="#8F8F8F"/>
</svg>
