<svg viewBox="0 0 42 42" xmlns="http://www.w3.org/2000/svg">
<path d="M21.4026 41.9469C21.9764 41.9468 22.5267 41.7189 22.9324 41.3131C23.3382 40.9074 23.5661 40.3571 23.5662 39.7833L23.5662 23.5854L39.7641 23.5854C40.0514 23.5904 40.3368 23.5381 40.6037 23.4316C40.8706 23.3252 41.1136 23.1666 41.3185 22.9652C41.5235 22.7638 41.6862 22.5236 41.7973 22.2586C41.9084 21.9936 41.9657 21.7092 41.9657 21.4218C41.9657 21.1345 41.9084 20.85 41.7973 20.585C41.6862 20.3201 41.5235 20.0799 41.3185 19.8785C41.1136 19.677 40.8706 19.5185 40.6037 19.412C40.3368 19.3055 40.0514 19.2532 39.7641 19.2582L23.5662 19.2582L23.5662 3.0603C23.5564 2.49299 23.3241 1.95225 22.9194 1.55454C22.5147 1.15684 21.97 0.933984 21.4026 0.933984C20.8352 0.933983 20.2905 1.15683 19.8858 1.55454C19.4812 1.95225 19.2489 2.49299 19.239 3.0603L19.239 19.2582L3.04111 19.2582C2.4738 19.2681 1.93306 19.5004 1.53535 19.905C1.13764 20.3097 0.914787 20.8544 0.914788 21.4218C0.914788 21.9892 1.13764 22.5339 1.53535 22.9386C1.93306 23.3433 2.4738 23.5756 3.04111 23.5854L19.239 23.5854L19.239 39.7833C19.2391 40.3571 19.4671 40.9074 19.8728 41.3131C20.2786 41.7189 20.8288 41.9468 21.4026 41.9469Z" fill="#8F8F8F"/>
</svg>
